<svg width="172px" height="20px" viewBox="0 0 172 20" xmlns="http://www.w3.org/2000/svg"><path d="M3.537 18.677C1.48 19.867 0 18.875 0 17.111V2.086C0 .322 1.478-.67 3.537.52c3.207 1.853 12.824 7.415 12.824 7.415 1.28.739 1.28 2.587 0 3.327 0 0-9.617 5.562-12.824 7.415z" fill="#00C1FF"/><path d="M14.123 18.677c-2.058 1.19-3.537.198-3.537-1.566V2.086c0-1.764 1.478-2.756 3.537-1.566l12.543 7.252c1.404.812 1.404 2.841 0 3.653l-12.543 7.252z" fill="#FCDE00"/><path d="M10.586 4.595c3.04 1.757 5.775 3.34 5.775 3.34 1.28.738 1.28 2.587 0 3.326 0 0-2.735 1.583-5.775 3.34V4.595z" fill="#FF8A01"/><path d="m34.548 13.941.376-.85c.25-.576.7-.727 1.277-.3 1.1.8 2.903 1.4 5.306 1.4 2.053 0 2.93-.525 2.93-1.15 0-.701-.727-.901-1.928-1.052l-2.729-.35c-3.279-.426-4.932-1.602-4.932-3.655 0-2.202 1.802-3.955 5.983-3.955 2.328 0 3.83.35 4.806.726 1.076.426 1.227.776 1.227 1.652v1.127c0 .7-.25.95-.95.95h-.777c-.7 0-.951-.25-.951-.95v-.376c-.45-.15-1.577-.376-2.903-.376-2.304 0-3.43.426-3.43 1.127 0 .525.677.826 1.902 1l2.679.351c3.279.426 5.006 1.402 5.006 3.755 0 2.403-2.278 3.93-6.333 3.93-2.979 0-5.382-.951-6.333-1.828-.35-.325-.4-.75-.226-1.176zM64.086 16.745h-1.377c-.677 0-.901-.1-1.227-.6l-2.604-3.83c-.376-.526-.65-.65-1.426-.65h-2.604v4.13c0 .7-.25.95-.95.95h-1.002c-.7 0-.95-.25-.95-.95V3.353h-.927c-.701 0-.951-.25-.951-.951v-.827c0-.7.25-.95.95-.95h2.88c.7 0 .95.25.95.95v7.285h2.328c.776 0 1.051-.125 1.426-.651l2.178-3.355c.35-.525.576-.625 1.252-.625h1.377c.75 0 .9.6.476 1.227l-2.429 3.68c-.25.35-.55.726-.85 1.026.3.25.726.676.9.926l3.054 4.456c.427.6.276 1.2-.474 1.2zM68.816 19.048v-.826c0-.701.25-.951.951-.951h1.202c.726 0 1.076-.15 1.351-.727l.15-.326L66.738 5.38c-.35-.65-.075-1.15.676-1.15h1.301c.676 0 .977.124 1.227.6l2.403 4.93c.55 1.127 1.176 2.429 1.677 3.555.5-1.1 1.076-2.352 1.627-3.454l2.454-5.03c.226-.475.55-.6 1.227-.6h1.301c.75 0 1.027.5.676 1.151l-6.532 12.391C74.024 19.2 73.147 20 71.195 20h-1.428c-.7 0-.95-.251-.95-.952zM83.472 13.941l.376-.85c.25-.576.7-.727 1.277-.3 1.1.8 2.903 1.4 5.306 1.4 2.053 0 2.929-.525 2.929-1.15 0-.701-.726-.901-1.928-1.052l-2.728-.35c-3.28-.426-4.932-1.602-4.932-3.655 0-2.202 1.802-3.955 5.983-3.955 2.328 0 3.83.35 4.806.726 1.076.426 1.227.776 1.227 1.652v1.127c0 .7-.25.95-.951.95h-.776c-.701 0-.951-.25-.951-.95v-.376c-.45-.15-1.578-.376-2.903-.376-2.304 0-3.43.426-3.43 1.127 0 .525.677.826 1.902 1l2.679.351c3.279.426 5.006 1.402 5.006 3.755 0 2.403-2.278 3.93-6.333 3.93-2.979 0-5.382-.951-6.333-1.828-.35-.325-.4-.75-.226-1.176zM123.39 9.787v6.007c0 .701-.251.951-.951.951h-1.001c-.701 0-.951-.25-.951-.95v-5.758c0-1.952-.951-3.129-2.905-3.129-1.577 0-2.828.977-3.755 2.003v6.883c0 .701-.25.951-.951.951h-1.001c-.7 0-.951-.25-.951-.95v-5.758c0-1.952-.926-3.129-2.878-3.129-1.527-.025-2.854.901-3.78 1.902v6.984c0 .701-.25.951-.951.951h-1.001c-.701 0-.951-.25-.951-.95V6.957h-.927c-.7 0-.95-.25-.95-.95V5.18c0-.7.25-.95.95-.95h2.429c.7 0 .951.25.951.95v.676c.851-.876 2.228-1.827 4.305-1.827 2.303 0 3.804.75 4.706 2.152 1.101-1.127 2.603-2.152 4.806-2.152 3.553-.001 5.757 1.952 5.757 5.757zM134.153 8.91h2.954v-.425c0-1.102-1.327-1.752-3.429-1.752-1.902 0-3.429.7-4.33 1.377-.576.426-1.027.3-1.277-.3l-.376-.852c-.174-.425-.125-.85.226-1.176.726-.676 2.853-1.752 5.907-1.752 3.455 0 6.082 1.451 6.082 4.055v7.71c0 .7-.25.95-.951.95h-.8c-.701 0-.951-.25-.951-.95v-.701c-.827.976-2.529 1.852-4.907 1.852-2.778 0-5.181-1.302-5.181-3.855-.001-2.753 2.527-4.18 7.033-4.18zm-1.551 5.407c1.577 0 4.606-.85 4.606-3.104h-2.729c-3.104 0-4.38.65-4.38 1.728-.001.876.825 1.376 2.503 1.376zM157.231 9.511c0 .701-.25.951-.951.951h-1.001c-.701 0-.951-.2-.951-.95 0-1.853-.701-2.68-2.403-2.68-1.601 0-2.928 1.002-3.679 2.204v6.758c0 .701-.25.951-.951.951h-1.001c-.701 0-.951-.25-.951-.95V6.957h-.927c-.7 0-.951-.25-.951-.95V5.18c0-.7.251-.95.951-.95h2.428c.701 0 .951.25.951.95v.801c.901-1.001 2.254-1.952 4.582-1.952 3.452-.001 4.854 2.027 4.854 5.481zM160.08 4.23h1.678V.951c0-.7.25-.951.951-.951h1.001c.701 0 .951.25.951.951v3.28h6.233c.701 0 .951.25.951.95v.826c0 .701-.25.951-.951.951h-6.233v5.507c0 1.077.726 1.652 2.453 1.652 1.402 0 2.253-.476 2.753-.85.577-.427.977-.276 1.277.3l.476.95c.201.427.1.752-.275 1.077-.451.4-1.903 1.352-4.556 1.352-2.879 0-5.032-1.227-5.032-4.106V6.958h-1.677c-.701 0-.952-.25-.952-.951V5.18c.001-.7.252-.95.952-.95z"/></svg>
